<?xml version="1.0" encoding="UTF-8" standalone="no"?>
<svg
   xmlns:shaper="http://www.shapertools.com/namespaces/shaper"
   xmlns:dc="http://purl.org/dc/elements/1.1/"
   xmlns:cc="http://creativecommons.org/ns#"
   xmlns:rdf="http://www.w3.org/1999/02/22-rdf-syntax-ns#"
   xmlns:svg="http://www.w3.org/2000/svg"
   xmlns="http://www.w3.org/2000/svg"
   xmlns:sodipodi="http://sodipodi.sourceforge.net/DTD/sodipodi-0.dtd"
   xmlns:inkscape="http://www.inkscape.org/namespaces/inkscape"
   enable-background="new 0 0 5.08 5.08"
   height="5.08cm"
   shaper:fusionaddin="version:1.5.0"
   version="1.1"
   viewBox="0 0 5.08 5.08"
   width="5.08cm"
   x="0cm"
   xml:space="preserve"
   y="0cm"
   id="svg8"
   sodipodi:docname="case_diffusor.svg"
   inkscape:version="1.0.2-2 (e86c870879, 2021-01-15)"><metadata
     id="metadata14"><rdf:RDF><cc:Work
         rdf:about=""><dc:format>image/svg+xml</dc:format><dc:type
           rdf:resource="http://purl.org/dc/dcmitype/StillImage" /></cc:Work></rdf:RDF></metadata><defs
     id="defs12" /><sodipodi:namedview
     pagecolor="#ffffff"
     bordercolor="#666666"
     borderopacity="1"
     objecttolerance="10"
     gridtolerance="10"
     guidetolerance="10"
     inkscape:pageopacity="0"
     inkscape:pageshadow="2"
     inkscape:window-width="1920"
     inkscape:window-height="1017"
     id="namedview10"
     showgrid="false"
     inkscape:zoom="4.4270834"
     inkscape:cx="95.999999"
     inkscape:cy="77.929411"
     inkscape:window-x="1072"
     inkscape:window-y="360"
     inkscape:window-maximized="1"
     inkscape:current-layer="svg8" /><path
     d="M1.41,4.38 L1.41,4.73 1.7571024,4.73 2.3242745,4.1628279 2.0891615,3.9277149 2.4427149,3.5741615 2.6778279,3.8092745 3.245,3.2421024 3.245,2.895 2.895,2.895 2.895,1.485 3.245,1.485 3.245,1.1378976 2.6778279,0.5707255 2.4427149,0.8058385 2.0891615,0.4522851 2.3242745,0.2171721 1.7571024,-0.35 1.41,-0.35 1.41,-0 0,0 -0,-0.35 -0.3471024,-0.35 -0.9142745,0.2171721 -0.6791615,0.4522851 -1.0327149,0.8058385 -1.2678279,0.5707255 -1.835,1.1378976 -1.835,1.485 -1.485,1.485 -1.485,2.895 -1.835,2.895 -1.835,3.2421024 -1.2678279,3.8092745 -1.0327149,3.5741615 -0.6791615,3.9277149 -0.9142745,4.1628279 -0.3471024,4.73 -0,4.73 0,4.38 1.41,4.38z"
     fill="rgb(0,0,0)"
     shaper:cutDepth="0.002"
     shaper:pathType="exterior"
     transform="matrix(1,0,0,-1,1.835,4.73)"
     vector-effect="non-scaling-stroke"
     id="path2" /></svg>
