<?xml version="1.0" encoding="utf-8"?>
<!-- Generator: Fusion 360, Shaper Origin Export Add-In, Version 1.5.0  -->
<svg enable-background="new 0 0 5.5 4" height="4cm" shaper:fusionaddin="version:1.5.0" version="1.1" viewBox="0 0 5.5 4" width="5.5cm" x="0cm" xml:space="preserve" xmlns="http://www.w3.org/2000/svg" xmlns:shaper="http://www.shapertools.com/namespaces/shaper" xmlns:xlink="http://www.w3.org/1999/xlink" y="0cm"><path d="M-0.5,3.5 L-0.5,0.5 A0.5,0.5 180 0,1 0,-0 L4.5,0 A0.5,0.5 270 0,1 5,0.5 L5,3.5 A0.5,0.5 0 0,1 4.5,4 L0,4 A0.5,0.5 90 0,1 -0.5,3.5z" fill="rgb(0,0,0)" shaper:cutDepth="0.003" shaper:pathType="exterior" transform="matrix(1,0,0,-1,0.5,4)" vector-effect="non-scaling-stroke" /><path d="M0,3.3 a0.2,0.2 0 1,1 0.4,0 a0.2,0.2 0 1,1 -0.4,0z" fill="rgb(255,255,255)" shaper:cutDepth="0.003" shaper:pathType="interior" stroke="rgb(0,0,0)" transform="matrix(1,0,0,-1,0.5,4)" vector-effect="non-scaling-stroke" /><path d="M4.1,3.3 a0.2,0.2 0 1,1 0.4,0 a0.2,0.2 0 1,1 -0.4,0z" fill="rgb(255,255,255)" shaper:cutDepth="0.003" shaper:pathType="interior" stroke="rgb(0,0,0)" transform="matrix(1,0,0,-1,0.5,4)" vector-effect="non-scaling-stroke" /><path d="M4.1,0.7 a0.2,0.2 0 1,1 0.4,0 a0.2,0.2 0 1,1 -0.4,0z" fill="rgb(255,255,255)" shaper:cutDepth="0.003" shaper:pathType="interior" stroke="rgb(0,0,0)" transform="matrix(1,0,0,-1,0.5,4)" vector-effect="non-scaling-stroke" /><path d="M0,0.7 a0.2,0.2 0 1,1 0.4,0 a0.2,0.2 0 1,1 -0.4,0z" fill="rgb(255,255,255)" shaper:cutDepth="0.003" shaper:pathType="interior" stroke="rgb(0,0,0)" transform="matrix(1,0,0,-1,0.5,4)" vector-effect="non-scaling-stroke" /><path d="M1.5747165,1.3589741 L3.9547165,1.3589741 3.9547165,2.6989741 1.5747165,2.6989741 1.5747165,1.3589741z" fill="rgb(255,255,255)" shaper:cutDepth="0.003" shaper:pathType="interior" stroke="rgb(0,0,0)" transform="matrix(1,0,0,-1,0.5,4)" vector-effect="non-scaling-stroke" /></svg>